<?xml version="1.0" standalone="no"?>
<!DOCTYPE svg PUBLIC "-//W3C//DTD SVG 20010904//EN"
 "http://www.w3.org/TR/2001/REC-SVG-20010904/DTD/svg10.dtd">
<svg version="1.0" xmlns="http://www.w3.org/2000/svg"
 width="512.000000pt" height="512.000000pt" viewBox="0 0 512.000000 512.000000"
 preserveAspectRatio="xMidYMid meet">

<g transform="translate(0.000000,512.000000) scale(0.100000,-0.100000)"
fill="#000000" stroke="none">
<path d="M3490 4769 c-207 -22 -552 -89 -688 -135 -272 -91 -495 -289 -630
-559 -40 -81 -96 -249 -122 -364 -11 -52 -41 -147 -66 -210 -75 -191 -70 -249
35 -365 28 -31 51 -62 51 -69 0 -30 -95 -175 -206 -313 -124 -154 -154 -210
-154 -283 0 -63 37 -110 135 -177 50 -33 92 -68 93 -78 2 -10 -11 -50 -28 -88
-44 -94 -49 -144 -20 -181 28 -36 42 -41 220 -87 l145 -37 -68 -32 c-82 -40
-165 -114 -173 -156 -4 -23 1 -40 23 -70 l28 -40 -3 -150 c-3 -130 0 -159 18
-218 36 -117 134 -197 241 -197 64 0 205 53 399 150 89 45 168 79 175 76 19
-7 86 -109 132 -201 55 -110 106 -239 173 -440 52 -155 59 -172 89 -189 31
-18 60 -18 833 -11 l801 8 24 23 c40 40 30 86 -42 214 -38 67 -64 132 -165
420 -83 240 -140 513 -140 679 l0 58 93 46 c50 25 115 65 142 88 120 99 214
244 257 395 42 148 25 386 -36 502 -11 21 -10 35 11 101 13 41 31 121 40 176
29 191 1 530 -63 755 -54 186 -185 397 -326 523 -395 351 -768 483 -1228 436z
m440 -188 c207 -46 398 -148 616 -327 263 -216 377 -477 400 -921 6 -114 -9
-333 -22 -333 -3 0 -33 24 -68 53 -90 73 -162 114 -263 151 -84 29 -94 31
-243 30 -147 0 -160 -2 -242 -30 -47 -17 -120 -52 -161 -77 -92 -58 -212 -182
-262 -271 -133 -238 -130 -537 7 -771 57 -96 184 -221 278 -274 116 -64 215
-92 348 -98 l112 -6 0 -46 c0 -64 35 -298 60 -406 36 -155 207 -651 245 -709
l17 -26 -289 0 c-159 0 -465 -3 -680 -7 l-391 -6 -17 59 c-58 201 -196 519
-275 635 l-39 57 97 37 c174 65 261 114 333 185 51 49 72 79 88 123 39 106 22
176 -46 193 -53 14 -96 -30 -108 -109 -14 -87 -103 -147 -365 -246 -226 -85
-304 -118 -488 -209 -234 -116 -280 -124 -318 -50 -21 40 -29 137 -17 204 9
47 4 126 -12 199 -6 30 -5 31 82 73 72 35 95 51 117 85 24 36 27 49 23 94 -7
63 -35 107 -85 131 -21 10 -93 31 -162 47 -69 15 -126 29 -128 30 -2 2 6 30
18 64 46 137 8 234 -118 307 -26 15 -57 36 -69 47 -21 18 -21 21 -7 49 8 16
54 77 101 135 116 143 165 216 208 303 56 118 45 183 -47 287 -67 77 -67 72
-12 207 18 47 51 154 73 238 64 252 125 385 244 528 91 110 249 216 396 265
129 42 407 95 691 129 73 9 297 -5 380 -23z m617 -1541 c276 -96 448 -398 389
-680 -38 -181 -165 -343 -327 -419 -179 -84 -350 -81 -529 7 -142 70 -264 221
-305 378 -25 95 -20 240 11 332 67 201 223 347 426 398 79 20 256 12 335 -16z"/>
<path d="M4539 2693 c-20 -21 -89 -105 -154 -188 -65 -82 -120 -152 -121 -154
-2 -2 -33 23 -68 57 -54 52 -70 62 -100 62 -63 0 -101 -61 -73 -116 8 -16 58
-71 110 -122 94 -91 96 -93 139 -90 l43 3 188 234 c161 201 187 238 187 267 0
47 -37 84 -83 84 -25 0 -41 -9 -68 -37z"/>
<path d="M375 2367 c-22 -18 -37 -61 -91 -247 -35 -124 -71 -249 -79 -277
l-16 -53 -69 0 c-56 0 -74 -4 -90 -20 -28 -28 -36 -69 -19 -99 25 -44 54 -52
172 -49 103 3 110 4 131 29 13 16 37 79 60 160 21 74 41 137 45 141 3 4 46
-153 95 -349 98 -392 103 -403 171 -403 21 0 42 7 54 19 10 10 45 98 77 195
32 97 62 176 65 176 4 0 21 -22 38 -49 43 -67 66 -85 108 -85 60 0 73 26 118
232 22 100 42 182 45 182 3 0 26 -105 52 -232 39 -194 50 -236 68 -250 22 -18
65 -23 95 -12 9 4 52 60 96 125 l79 119 106 0 c125 0 166 13 182 59 13 36 8
56 -21 89 -20 21 -27 22 -178 22 -87 0 -165 -3 -174 -6 -9 -4 -32 -29 -50 -57
-22 -33 -36 -46 -39 -36 -3 8 -33 156 -67 329 -58 288 -65 317 -90 343 -30 30
-72 35 -101 13 -28 -21 -42 -66 -103 -348 -33 -148 -61 -268 -65 -268 -3 0
-20 23 -38 51 -47 71 -91 86 -139 45 -20 -17 -38 -55 -68 -147 l-42 -124 -94
380 c-79 318 -98 384 -118 403 -31 28 -73 28 -106 -1z"/>
</g>
</svg>
